<svg xmlns="http://www.w3.org/2000/svg" width="26.773" height="34.616" viewBox="0 0 26.773 34.616"><defs><style>.a{fill:#e90000;}</style></defs><path class="a" d="M11.967,26.232v-3.38H8.587a1.352,1.352,0,1,1,0-2.7h3.38v-3.38a1.352,1.352,0,0,1,2.7,0v3.38h3.38a1.352,1.352,0,0,1,0,2.7h-3.38v3.38a1.352,1.352,0,1,1-2.7,0ZM20.492,7.914C17.476,3.826,14.509.576,14.384.439a1.352,1.352,0,0,0-1.995,0C12.264.576,9.3,3.826,6.282,7.914,2.114,13.564,0,17.908,0,20.827v.37A13.384,13.384,0,0,0,19.932,32.9a1.352,1.352,0,1,0-1.326-2.357A10.68,10.68,0,0,1,2.7,21.2v-.369c0-2.26,2.038-6.269,5.74-11.289,1.9-2.577,3.819-4.854,4.943-6.147,1.12,1.289,3.031,3.557,4.929,6.129,3.71,5.028,5.753,9.044,5.753,11.307v.37a10.618,10.618,0,0,1-1.206,4.952,1.352,1.352,0,1,0,2.4,1.249,13.482,13.482,0,0,0,1.512-6.2v-.369c0-2.919-2.113-7.263-6.281-12.913Zm0,0" transform="translate(0 0)"/></svg>