<svg xmlns="http://www.w3.org/2000/svg" width="30.534" height="40.713" viewBox="0 0 30.534 40.713"><defs><style>.a{fill:#f90;}</style></defs><g transform="translate(0 0)"><path class="a" d="M94.485,24.235l-.029-.4c-.466-6.071-3.293-9.877-5.787-13.234-2.309-3.109-4.3-5.793-4.3-9.754A.85.85,0,0,0,83.9.094a.84.84,0,0,0-.881.065,21.572,21.572,0,0,0-7.962,11.508,37.568,37.568,0,0,0-.872,8.6c-3.459-.739-4.242-5.913-4.251-5.969a.848.848,0,0,0-1.21-.644c-.181.088-4.452,2.258-4.7,10.923-.017.288-.018.576-.018.866a15.267,15.267,0,0,0,30.534,0C94.543,25.023,94.514,24.629,94.485,24.235ZM79.276,39.016a5.269,5.269,0,0,1-5.089-5.421c0-.1,0-.2.007-.33a6.876,6.876,0,0,1,.536-2.694,3.1,3.1,0,0,0,2.8,2.028.848.848,0,0,0,.848-.848,16.968,16.968,0,0,1,.326-3.858,8.2,8.2,0,0,1,1.717-3.252,10.93,10.93,0,0,0,1.749,3.208,9.664,9.664,0,0,1,2.174,5.3c.011.146.022.292.022.45A5.269,5.269,0,0,1,79.276,39.016Zm5.36-1.108a7.268,7.268,0,0,0,1.425-4.313c0-.2-.012-.385-.037-.732a11.1,11.1,0,0,0-2.467-5.99A6.732,6.732,0,0,1,81.87,22.9a.848.848,0,0,0-1.359-.677A9.908,9.908,0,0,0,77.054,27.5a15.528,15.528,0,0,0-.356,3.01,4.028,4.028,0,0,1-.772-1.821.85.85,0,0,0-1.227-.64c-.214.109-2.091,1.186-2.2,5.147-.007.134-.008.268-.008.4a7.268,7.268,0,0,0,1.425,4.313,13.588,13.588,0,0,1-8.21-12.462c0-.254,0-.508.017-.79.146-5.084,1.773-7.605,2.834-8.718.74,2.65,2.68,6.115,6.479,6.115a.848.848,0,0,0,.848-.848,37.867,37.867,0,0,1,.822-9.122,20.126,20.126,0,0,1,6.07-9.564c.473,3.633,2.452,6.3,4.532,9.1,2.472,3.328,5.029,6.769,5.457,12.342l.029.406c.026.353.054.7.054,1.083A13.588,13.588,0,0,1,84.636,37.908Z" transform="translate(-64.009 0.001)"/></g></svg>