<svg xmlns="http://www.w3.org/2000/svg" width="40.712" height="35.914" viewBox="0 0 40.712 35.914"><defs><style>.a{fill:#fff;}</style></defs><g transform="translate(32.959 4.109)"><path class="a" d="M415.3,81.836a.8.8,0,1,0,.8.8A.8.8,0,0,0,415.3,81.836Z" transform="translate(-414.5 -81.836)"/></g><g transform="translate(0 0)"><path class="a" d="M37.885,33.472a9.788,9.788,0,0,0-7.411-3.307A11.5,11.5,0,0,0,22.159,33.7a14.091,14.091,0,0,0-1.8,2.243,14.1,14.1,0,0,0-1.8-2.243,11.5,11.5,0,0,0-8.315-3.532C4.206,30.165,0,35.211,0,41.21c0,8.1,8.588,14.928,19.835,24.675a.8.8,0,0,0,1.041,0C32.15,56.115,40.712,49.3,40.712,41.21A11.582,11.582,0,0,0,37.885,33.472Zm-17.53,30.76C9.735,55.042,1.59,48.441,1.59,41.21c0-5.39,3.717-9.455,8.647-9.455a9.81,9.81,0,0,1,7.146,3.022,11.855,11.855,0,0,1,2.247,3.1.8.8,0,0,0,.724.469h0a.8.8,0,0,0,.725-.469,11.856,11.856,0,0,1,2.247-3.1,9.81,9.81,0,0,1,7.146-3.022c4.93,0,8.647,4.065,8.647,9.455C39.121,48.6,30.439,55.507,20.356,64.232Z" transform="translate(0 -30.165)"/></g><g transform="translate(32.325 6.515)"><path class="a" d="M410.74,112.529a.8.8,0,1,0-1.408.739,7.372,7.372,0,0,1,.814,3.366c0,2.3-1.094,4.736-3.442,7.675a.8.8,0,0,0,1.242.993c2.585-3.235,3.79-5.989,3.79-8.667A8.866,8.866,0,0,0,410.74,112.529Z" transform="translate(-406.53 -112.103)"/></g><g transform="translate(11.927 9.993)"><path class="a" d="M166.062,161.084h-4.453v-4.453a.8.8,0,0,0-.8-.8h-4.771a.8.8,0,0,0-.8.8v4.453H150.8a.8.8,0,0,0-.8.8v4.771a.8.8,0,0,0,.8.8h4.453V171.9a.8.8,0,0,0,.8.8h4.771a.8.8,0,0,0,.8-.8v-4.453h4.453a.8.8,0,0,0,.8-.8v-4.771A.8.8,0,0,0,166.062,161.084Zm-.8,4.771h-4.453a.8.8,0,0,0-.8.8V171.1h-3.181V166.65a.8.8,0,0,0-.8-.8H151.59v-3.181h4.453a.8.8,0,0,0,.8-.8v-4.453h3.181v4.453a.8.8,0,0,0,.8.8h4.453Z" transform="translate(-150 -155.836)"/></g></svg>