<svg xmlns="http://www.w3.org/2000/svg" width="27.875" height="32" viewBox="0 0 27.875 32"><defs><style>.a{fill:#ff9404;}</style></defs><path class="a" d="M60.067,28.784H58.18V16.095a.469.469,0,1,0-.937,0V28.784h-4.6v-1.69H54.4a.469.469,0,0,0,0-.938H52.645v-1.69h.745a.469.469,0,0,0,0-.938h-.745V21.84H54.4a.469.469,0,0,0,0-.938H52.645v-1.69h.745a.469.469,0,0,0,0-.938h-.745v-1.69H54.4a.469.469,0,0,0,0-.938H52.645v-1.69h.745a.469.469,0,0,0,0-.938h-.745V11.33H54.4a.469.469,0,0,0,0-.938H52.645V8.7h.745a.469.469,0,0,0,0-.938h-.745V6.075H54.4a.469.469,0,0,0,0-.938H52.645V3.448h4.6V13.94a.469.469,0,1,0,.938,0V3.447a.785.785,0,0,0,.758-.783V.784A.785.785,0,0,0,58.154,0H43.779a.469.469,0,1,0,0,.938h4.658v.786A1.726,1.726,0,0,0,50.16,3.448h1.547V28.784H46.518A2.862,2.862,0,0,0,44.386,26.8a1.784,1.784,0,0,1-.2-.061c-.007-.072-.007-.2-.007-.279V23.944a.782.782,0,0,0,.622-.764V19.159A1.6,1.6,0,0,0,47.057,17.7v-4.08A4.887,4.887,0,0,0,45.926,10.3a3.845,3.845,0,0,0-2.041-1.193A3.72,3.72,0,0,0,44.9,6.776V5.791A4.179,4.179,0,0,0,43.76,2.756,3.649,3.649,0,0,0,41.221,1.69h-.015a3.649,3.649,0,0,0-2.54,1.066,4.179,4.179,0,0,0-1.144,3.035v.985a3.721,3.721,0,0,0,1.019,2.335A3.846,3.846,0,0,0,36.5,10.3a4.886,4.886,0,0,0-1.131,3.319V17.7a1.6,1.6,0,0,0,2.259,1.456V23.18a.782.782,0,0,0,.622.764v2.519c0,.082,0,.207-.007.278a1.755,1.755,0,0,1-.2.061,2.86,2.86,0,0,0-2.132,1.982h-1.3A1.609,1.609,0,0,0,33,30.392v.833a.775.775,0,0,0,.773.775H60.067a.81.81,0,0,0,.809-.809v-1.6A.81.81,0,0,0,60.067,28.784ZM49.375,1.723V.937H58V2.51H50.16A.787.787,0,0,1,49.375,1.723ZM45.549,28.784H41.682V23.96h1.559v2.5c0,.687.09,1.035.91,1.248A2.188,2.188,0,0,1,45.549,28.784ZM46.12,17.7a.66.66,0,1,1-1.32,0v-3.06h1.32ZM41.213,2.628a2.788,2.788,0,0,1,2.711,2.548A1.531,1.531,0,0,1,43.6,4.9a1.247,1.247,0,0,0-.929-.469,1.448,1.448,0,0,0-.363.049c-.169.043-.96.255-1.1.255s-.926-.211-1.095-.254a1.2,1.2,0,0,0-1.293.42,1.542,1.542,0,0,1-.324.274,2.788,2.788,0,0,1,2.711-2.548ZM38.46,6.776V6.191A2.042,2.042,0,0,0,39.5,5.557c.2-.206.21-.214.39-.168a10.078,10.078,0,0,0,1.328.284,10.09,10.09,0,0,0,1.329-.284c.179-.046.187-.038.388.168a2.04,2.04,0,0,0,1.037.635v.584a3.369,3.369,0,0,1-2.111,2.661,1.638,1.638,0,0,1-1.288,0A3.367,3.367,0,0,1,38.46,6.776Zm3.865,3.484a1.111,1.111,0,1,1-2.222,0q.07.029.14.056a2.565,2.565,0,0,0,1.939,0c.048-.018.095-.036.142-.056Zm-3.169-.3V10.1a2.064,2.064,0,1,0,4.116,0V9.956c1.769.2,2.848,1.568,2.848,3.668v.082H44.332a.469.469,0,0,0-.469.469v3.06H42.218a.469.469,0,0,0,0,.938h1.645v4.851H41.682V20.617h.481a.469.469,0,0,0,0-.938h-1.9a.469.469,0,0,0,0,.938h.481v2.406H38.564V18.172h1.661a.469.469,0,0,0,0-.938H38.564v-3.06a.469.469,0,0,0-.469-.469h-1.79v-.082c0-2.1,1.08-3.465,2.85-3.668Zm-2.189,8.409a.662.662,0,0,1-.662-.662v-3.06h1.321V17.7A.662.662,0,0,1,36.967,18.365Zm1.308,9.345c.821-.213.911-.56.911-1.248v-2.5h1.559v4.824H36.878a2.185,2.185,0,0,1,1.4-1.074Zm21.664,3.353h-26v-.67a.67.67,0,0,1,.669-.671H59.938Z" transform="translate(-33.001 0)"/></svg>