<svg xmlns="http://www.w3.org/2000/svg" xmlns:xlink="http://www.w3.org/1999/xlink" width="84.294" height="84.294" viewBox="0 0 84.294 84.294"><defs><style>.a{fill-rule:evenodd;fill:url(#a);}.b{fill:#fff;}.c{fill:#616161;font-size:6px;font-family:SegoeUIBlack, Segoe UI;}.d{filter:url(#b);}</style><radialGradient id="a" cx="0.5" cy="0.5" r="0.683" gradientTransform="matrix(0.719, 0.695, -0.695, 0.72, 0.487, -0.207)" gradientUnits="objectBoundingBox"><stop offset="0" stop-color="red"/><stop offset="1" stop-color="#a60000"/></radialGradient><filter id="b" x="0" y="0" width="84.294" height="84.294" filterUnits="userSpaceOnUse"><feOffset dx="7" dy="7" input="SourceAlpha"/><feGaussianBlur stdDeviation="3" result="c"/><feFlood flood-color="#ff6969" flood-opacity="0.259"/><feComposite operator="in" in2="c"/><feComposite in="SourceGraphic"/></filter></defs><g transform="translate(-172 -75.425)"><g class="d" transform="matrix(1, 0, 0, 1, 172, 75.42)"><path class="a" d="M28.329,0h9.656a7.609,7.609,0,0,1,7.587,7.587V18.87H58.717A7.609,7.609,0,0,1,66.3,26.457v9.656A7.609,7.609,0,0,1,58.717,43.7H45.571V58.708a7.609,7.609,0,0,1-7.587,7.587H28.329a7.609,7.609,0,0,1-7.587-7.587v-.565a21.378,21.378,0,0,1,2.043-1.024c5.839-2.464,10.9-9.585,10.9-9.585.307-1.407-.181-2-2.126-2.565,1.6-1.6-.512-4.012-2.025-4.05.387-2.45-.339-3.476-2.869-3.476a38.669,38.669,0,0,1,5.5-5.906c4.172-5.879.559-6.687-3.544-2.936L18.5,38.758l-.742.844c-.068.077-.238-1.919-.54-3.51-.986-5.2-4.048-5.335-4.421.371A20.749,20.749,0,0,1,10.789,43.7H7.6A7.609,7.609,0,0,1,.01,36.113V26.457A7.609,7.609,0,0,1,7.6,18.87H20.743V7.587A7.609,7.609,0,0,1,28.329,0Z" transform="translate(1.99 2)"/></g><g transform="translate(211.745 102.591)"><path class="b" d="M1135.418,529.713v-10.6a1.1,1.1,0,0,0-.509-.912,1.026,1.026,0,0,0-1.018-.042l-6.361,3.181v6.15l6.361,3.181a1.082,1.082,0,0,0,1.018-.042,1.1,1.1,0,0,0,.509-.912Z" transform="translate(-1110.501 -518.041)"/><path class="b" d="M791.56,530.933h-10.6c-2.2,0-3.976-1.42-3.976-3.181v-6.362c0-1.76,1.776-3.181,3.976-3.181h10.6c2.2,0,3.976,1.421,3.976,3.181v6.362C795.536,529.513,793.76,530.933,791.56,530.933Z" transform="translate(-776.98 -518.202)"/></g><text class="c" transform="translate(215.223 111.093)"><tspan x="0" y="0">911</tspan></text></g></svg>