<svg xmlns="http://www.w3.org/2000/svg" width="49.104" height="32.734" viewBox="0 0 49.104 32.734"><defs><style>.a{fill:#e90000;}</style></defs><path class="a" d="M34.274,21.747A3.274,3.274,0,1,0,31,18.474,3.274,3.274,0,0,0,34.274,21.747Zm0-4.91a1.637,1.637,0,1,1-1.637,1.637A1.637,1.637,0,0,1,34.274,16.837Z" transform="translate(-7.267 -12.583)"/><path class="a" d="M56.99,29.129a.818.818,0,0,0-.92-.13l-1.169.584L51.89,27.175a3.283,3.283,0,0,0-2.046-.717H43.779l-.9-1.342,3.146-1.693a2.481,2.481,0,0,0,1.158-3.164l-1.871-3.814a2.3,2.3,0,0,0-4.285,1.647l.836,1.926-4.738,2.567a2.455,2.455,0,0,0-.865,3.487l2.392,3.838a3.273,3.273,0,0,0,2.724,1.458h5.234V37.1a.818.818,0,0,0,.818.818h4.91a.818.818,0,0,0,.579-1.4l-1.4-1.4V32.813l2.852,1.711a.818.818,0,0,0,1.182-.4L57.2,30.036A.818.818,0,0,0,56.99,29.129Zm-8.738,7.149V30.55a.818.818,0,0,0-.818-.818H41.377a1.625,1.625,0,0,1-1.348-.708l-2.392-3.838a.818.818,0,0,1,.276-1.165L43.3,21.1a.818.818,0,0,0,.361-1.046l-1.111-2.548a.66.66,0,0,1,.821-.84.7.7,0,0,1,.442.441l1.871,3.814a.83.83,0,0,1-.416,1.048L41.313,24.1a.818.818,0,0,0-.293,1.174l1.637,2.455a.818.818,0,0,0,.685.368H49.07a.818.818,0,0,1,.818.818V35.46a.818.818,0,0,0,.24.578l.24.24ZM54.4,32.627,51.525,30.9V28.978l2.762,2.21a.826.826,0,0,0,.615.173Z" transform="translate(-8.151 -12.547)"/><path class="a" d="M35.554,35.54H31.871l-3.95-5.23a3.284,3.284,0,0,0-2.609-1.3H25.3l-11.445-.047a3.3,3.3,0,0,0-2.6,1.309L7.32,35.54H5.274A3.274,3.274,0,0,0,2,38.813v4.91a.818.818,0,0,0,.818.818H5.355a4.092,4.092,0,0,0,4.01,3.274H9.38a4.092,4.092,0,0,0,4-3.274H27.452a4.092,4.092,0,0,0,4.01,3.274h.015a4.092,4.092,0,0,0,4-3.274h2.537a.818.818,0,0,0,.818-.818v-4.91A3.274,3.274,0,0,0,35.554,35.54ZM25.3,30.642h.007a1.645,1.645,0,0,1,1.309.655l3.2,4.243H20.024L20,30.621Zm-12.742.6a1.647,1.647,0,0,1,1.3-.655l4.515.022.02,4.925H9.36ZM9.375,46.179H9.366a2.455,2.455,0,0,1-.009-4.91h.009a2.455,2.455,0,0,1,.009,4.91Zm2.874-5.359a4.135,4.135,0,0,0-2.9-1.188,4.092,4.092,0,0,0-4,3.274H3.637V38.813a1.637,1.637,0,0,1,1.637-1.637h13.12l.018,5.729H13.376a4.058,4.058,0,0,0-1.127-2.085Zm19.222,5.359h-.009a2.455,2.455,0,0,1-.009-4.91h.009a2.455,2.455,0,0,1,.009,4.91Zm5.72-3.274H35.472a4.093,4.093,0,0,0-8.02,0H20.046l-.018-5.729H35.554a1.637,1.637,0,0,1,1.637,1.637Z" transform="translate(-2 -15.082)"/><path class="a" d="M13.4,22.522l4.092,2.455.843-1.4-2.678-1.607,2.561-1.024a.818.818,0,0,0,.472-1.019l-1.12-3.355,3.355,1.12a.818.818,0,0,0,1.019-.472l1.115-2.788,2.4,3L26.73,16.4,23.456,12.31a.818.818,0,0,0-1.4.207l-1.35,3.376L16.529,14.5a.818.818,0,0,0-1.035,1.035l1.391,4.179-3.376,1.35a.818.818,0,0,0-.117,1.462Z" transform="translate(-3.997 -12.002)"/></svg>