<svg xmlns="http://www.w3.org/2000/svg" width="37.047" height="37.047" viewBox="0 0 37.047 37.047"><defs><style>.a{fill:#616161;}</style></defs><path class="a" d="M37.582,33.879l-10.82-2.459a2.377,2.377,0,0,1-1.861-2.33V25.821a7.369,7.369,0,0,0,2.289-4.351l.022-.154h.677a.6.6,0,0,0,.583-.468l1.2-5.378a.591.591,0,0,0,.014-.13V11.474a8.383,8.383,0,0,0,2.652-3.089l.272-.545a.6.6,0,0,0-.075-.65l-.115-.139a14.246,14.246,0,0,0-7.538-4.732l-5.208-1.3a.6.6,0,0,0-.29,0l-5.208,1.3A14.246,14.246,0,0,0,6.632,7.052l-.115.139a.6.6,0,0,0-.075.65l.272.545a8.373,8.373,0,0,0,2.652,3.089v3.867a.591.591,0,0,0,.014.13l1.2,5.378a.6.6,0,0,0,.583.468h.677l.022.154a7.369,7.369,0,0,0,2.289,4.351v3.268a2.377,2.377,0,0,1-1.861,2.33L1.465,33.879A.6.6,0,0,0,1,34.461v3.585H2.2v-1.27L9.6,35.789a1.8,1.8,0,0,0,1.556-1.776V32.9l1-.226,2.694,3.918a.6.6,0,0,0,.415.254.665.665,0,0,0,.077,0,.6.6,0,0,0,.389-.144l1.188-1.019L18.5,37.274a.6.6,0,0,0,.422.175h1.2a.6.6,0,0,0,.422-.175l1.585-1.585,1.188,1.019a.6.6,0,0,0,.389.144.665.665,0,0,0,.077,0,.6.6,0,0,0,.415-.254l2.694-3.918,1,.226v1.111a1.8,1.8,0,0,0,1.556,1.777l7.407.988v1.269h1.2V34.461A.6.6,0,0,0,37.582,33.879Zm-4.913.109v1.026l-1.2-.16V33.716ZM24.353,13.947a29.606,29.606,0,0,0-9.66,0l-4.133.689V11.664l4.33-.721a28.4,28.4,0,0,1,9.266,0l4.33.721v2.971Zm.958,1.371a3.419,3.419,0,0,1-1.967.62H15.7a3.422,3.422,0,0,1-1.968-.62l1.155-.192a28.4,28.4,0,0,1,9.266,0ZM7.783,7.851l-.1-.194A13.057,13.057,0,0,1,14.46,3.48l5.063-1.266L24.586,3.48a13.057,13.057,0,0,1,6.775,4.177l-.1.194a7.176,7.176,0,0,1-2.328,2.677l-4.583-.764a29.606,29.606,0,0,0-9.66,0l-4.583.764A7.171,7.171,0,0,1,7.783,7.851ZM13.04,21.3l-.1-.666a.6.6,0,0,0-.592-.513h-.716l-.954-4.294,1.555-.259A4.61,4.61,0,0,0,15.7,17.133h7.642a4.609,4.609,0,0,0,3.464-1.566l1.555.259-.954,4.294h-.716a.6.6,0,0,0-.592.513l-.1.666a6.182,6.182,0,0,1-3.355,4.655,7.112,7.112,0,0,1-6.257,0A6.183,6.183,0,0,1,13.04,21.3Zm2.821,5.724a8.191,8.191,0,0,0,7.326,0c.18-.09.349-.2.52-.3V28.79l-4.183,3.132L15.341,28.79V26.724C15.512,26.827,15.68,26.934,15.86,27.024ZM7.573,33.716v1.138l-1.2.16V33.988ZM2.2,34.938l2.988-.679v.914l-2.988.4Zm7.768-.926a.6.6,0,0,1-.519.592l-.676.09V33.445l1.2-.272Zm5.494,1.355-2.114-3.075a3.542,3.542,0,0,0,1.829-2.136l3.4,2.544Zm4.417.886h-.7l-1.345-1.345,1.7-1.453,1.7,1.453Zm3.717-.886L20.478,32.7l3.4-2.544A3.541,3.541,0,0,0,25.7,32.292Zm5.494-1.355v-.84l1.2.272V34.7L29.6,34.6A.6.6,0,0,1,29.084,34.013Zm4.78,1.16V34.26l2.988.679v.633Z" transform="translate(-1 -1)"/><path class="a" d="M29.715,10.926l.127.032a.6.6,0,0,0,.29,0l.127-.032a3.58,3.58,0,0,0,2.715-3.478V5.6a.6.6,0,0,0-.6-.6H27.6a.6.6,0,0,0-.6.6v1.85A3.58,3.58,0,0,0,29.715,10.926ZM28.2,6.2H31.78V7.447a2.386,2.386,0,0,1-1.793,2.314A2.387,2.387,0,0,1,28.2,7.447Z" transform="translate(-11.464 -2.61)"/></svg>