<svg xmlns="http://www.w3.org/2000/svg" width="33.473" height="35" viewBox="0 0 33.473 35"><defs><style>.a{fill:#02d5ff;}</style></defs><g transform="translate(0 0)"><path class="a" d="M39.149,4.052A20.206,20.206,0,0,0,35,1.632,19.369,19.369,0,0,0,26.613.01,19.812,19.812,0,0,0,15.349,4.034H11.076V35H44.549V4.033Zm4.365,29.914H12.11V5.069H15.7l.14-.109a18.772,18.772,0,0,1,10.8-3.916,18.353,18.353,0,0,1,7.945,1.537,19.089,19.089,0,0,1,4.065,2.4l.141.11,4.717-.017Z" transform="translate(-11.076 0)"/><path class="a" d="M73.351,113.843H46.805V89.5h2.678V88.468H45.771v26.409H74.386V99.589H73.351Z" transform="translate(-43.379 -82.368)"/><path class="a" d="M445.752,213.87h1.034v1.237h-1.034Z" transform="translate(-415.779 -199.123)"/><path class="a" d="M115.549,55.769a17.241,17.241,0,0,1,10.432.009l.431.137,3.616-7.637-.443-.23a19.178,19.178,0,0,0-17.709,0l-.446.232,3.694,7.623ZM114.3,48.123l.793,1.672.934-.443-.754-1.59a18.376,18.376,0,0,1,1.939-.5l.214,1.777,1.027-.123-.22-1.826a17.955,17.955,0,0,1,1.984-.167v2.439h1.034V46.924a18.011,18.011,0,0,1,1.889.155l-.221,1.839,1.027.124.216-1.794a18.326,18.326,0,0,1,1.948.49l-.765,1.613.934.443.793-1.672s.99.331,1.587.62l-2.8,5.917a16.809,16.809,0,0,0-3.765-.691l-1.779-3.154-.9.505,1.462,2.612h-.127a18.267,18.267,0,0,0-5.083.722L112.8,48.741C113.372,48.464,114.3,48.123,114.3,48.123Z" transform="translate(-104.509 -42.718)"/><path class="a" d="M393.251,89.5h3.62v6.376h1.034v-7.41h-4.654Z" transform="translate(-366.899 -82.368)"/></g><g transform="translate(4.447 25.913)"><path class="a" d="M100.622,375.808h1.036v1.036h-1.036Z" transform="translate(-98.895 -375.808)"/><path class="a" d="M100.622,425.906h1.036v1.036h-1.036Z" transform="translate(-98.895 -422.452)"/><path class="a" d="M125.671,400.857h1.036v1.036h-1.036Z" transform="translate(-122.217 -399.13)"/><path class="a" d="M75.573,400.857h1.036v1.036H75.573Z" transform="translate(-75.573 -399.13)"/></g><g transform="translate(26.785 8.271)"><path class="a" d="M399.519,149.423h1.036v1.036h-1.036Z" transform="translate(-399.519 -147.391)"/><path class="a" d="M399.519,119.948h1.036v1.036h-1.036Z" transform="translate(-399.519 -119.948)"/></g></svg>